<svg width="393" height="852" viewBox="0 0 393 852" fill="none" xmlns="http://www.w3.org/2000/svg">
<path d="M263.951 438.313L252.053 412.671L223.898 410.154L207.64 433.279L219.538 458.921L247.694 461.438L263.951 438.313Z" stroke="white" stroke-opacity="0.01" stroke-width="3"/>
<path d="M223.951 410.313L212.053 384.671L183.898 382.154L167.64 405.279L179.538 430.921L207.694 433.438L223.951 410.313Z" stroke="white" stroke-opacity="0.01" stroke-width="3"/>
<path d="M183.951 382.313L172.053 356.671L143.898 354.154L127.64 377.279L139.538 402.921L167.694 405.438L183.951 382.313Z" stroke="white" stroke-opacity="0.01" stroke-width="3"/>
<path d="M267.951 389.313L256.053 363.671L227.898 361.154L211.64 384.279L223.538 409.921L251.694 412.438L267.951 389.313Z" stroke="white" stroke-opacity="0.01" stroke-width="3"/>
<path d="M228.951 361.313L217.053 335.671L188.898 333.154L172.64 356.279L184.538 381.921L212.694 384.438L228.951 361.313Z" stroke="white" stroke-opacity="0.01" stroke-width="3"/>
<path d="M189.951 333.313L178.053 307.671L149.898 305.154L133.64 328.279L145.538 353.921L173.694 356.438L189.951 333.313Z" stroke="white" stroke-opacity="0.01" stroke-width="3"/>
<path d="M232.951 310.313L221.053 284.671L192.898 282.154L176.64 305.279L188.538 330.921L216.694 333.438L232.951 310.313Z" stroke="white" stroke-opacity="0.01" stroke-width="3"/>
<path d="M280.64 143.313L292.538 117.671L320.694 115.154L336.951 138.279L325.053 163.921L296.898 166.438L280.64 143.313Z" stroke="black" stroke-opacity="0.3" stroke-width="3"/>
<path d="M280.64 143.313L292.538 117.671L320.694 115.154L336.951 138.279L325.053 163.921L296.898 166.438L280.64 143.313Z" stroke="black" stroke-opacity="0.3" stroke-width="3"/>
<path d="M280.64 143.313L292.538 117.671L320.694 115.154L336.951 138.279L325.053 163.921L296.898 166.438L280.64 143.313Z" stroke="black" stroke-opacity="0.3" stroke-width="3"/>
<path d="M320.64 115.313L332.538 89.6707L360.694 87.1538L376.951 110.279L365.053 135.921L336.898 138.438L320.64 115.313Z" stroke="black" stroke-opacity="0.3" stroke-width="3"/>
<path d="M320.64 115.313L332.538 89.6707L360.694 87.1538L376.951 110.279L365.053 135.921L336.898 138.438L320.64 115.313Z" stroke="black" stroke-opacity="0.3" stroke-width="3"/>
<path d="M320.64 115.313L332.538 89.6707L360.694 87.1538L376.951 110.279L365.053 135.921L336.898 138.438L320.64 115.313Z" stroke="black" stroke-opacity="0.3" stroke-width="3"/>
<path d="M360.64 87.3127L372.538 61.6707L400.694 59.1538L416.951 82.2788L405.053 107.921L376.898 110.438L360.64 87.3127Z" stroke="black" stroke-opacity="0.3" stroke-width="3"/>
<path d="M360.64 87.3127L372.538 61.6707L400.694 59.1538L416.951 82.2788L405.053 107.921L376.898 110.438L360.64 87.3127Z" stroke="black" stroke-opacity="0.3" stroke-width="3"/>
<path d="M360.64 87.3127L372.538 61.6707L400.694 59.1538L416.951 82.2788L405.053 107.921L376.898 110.438L360.64 87.3127Z" stroke="black" stroke-opacity="0.3" stroke-width="3"/>
<path d="M276.64 94.3127L288.538 68.6707L316.694 66.1538L332.951 89.2788L321.053 114.921L292.898 117.438L276.64 94.3127Z" stroke="black" stroke-opacity="0.3" stroke-width="3"/>
<path d="M276.64 94.3127L288.538 68.6707L316.694 66.1538L332.951 89.2788L321.053 114.921L292.898 117.438L276.64 94.3127Z" stroke="black" stroke-opacity="0.3" stroke-width="3"/>
<path d="M276.64 94.3127L288.538 68.6707L316.694 66.1538L332.951 89.2788L321.053 114.921L292.898 117.438L276.64 94.3127Z" stroke="black" stroke-opacity="0.3" stroke-width="3"/>
<path d="M315.64 66.3127L327.538 40.6707L355.694 38.1537L371.951 61.2788L360.053 86.9208L331.898 89.4377L315.64 66.3127Z" stroke="black" stroke-opacity="0.3" stroke-width="3"/>
<path d="M315.64 66.3127L327.538 40.6707L355.694 38.1537L371.951 61.2788L360.053 86.9208L331.898 89.4377L315.64 66.3127Z" stroke="black" stroke-opacity="0.3" stroke-width="3"/>
<path d="M315.64 66.3127L327.538 40.6707L355.694 38.1537L371.951 61.2788L360.053 86.9208L331.898 89.4377L315.64 66.3127Z" stroke="black" stroke-opacity="0.3" stroke-width="3"/>
<path d="M354.64 38.3127L366.538 12.6707L394.694 10.1537L410.951 33.2788L399.053 58.9208L370.898 61.4377L354.64 38.3127Z" stroke="black" stroke-opacity="0.3" stroke-width="3"/>
<path d="M354.64 38.3127L366.538 12.6707L394.694 10.1537L410.951 33.2788L399.053 58.9208L370.898 61.4377L354.64 38.3127Z" stroke="black" stroke-opacity="0.3" stroke-width="3"/>
<path d="M354.64 38.3127L366.538 12.6707L394.694 10.1537L410.951 33.2788L399.053 58.9208L370.898 61.4377L354.64 38.3127Z" stroke="black" stroke-opacity="0.3" stroke-width="3"/>
<path d="M311.64 15.3127L323.538 -10.3293L351.694 -12.8463L367.951 10.2788L356.053 35.9208L327.898 38.4377L311.64 15.3127Z" stroke="black" stroke-opacity="0.3" stroke-width="3"/>
<path d="M311.64 15.3127L323.538 -10.3293L351.694 -12.8463L367.951 10.2788L356.053 35.9208L327.898 38.4377L311.64 15.3127Z" stroke="black" stroke-opacity="0.3" stroke-width="3"/>
<path d="M311.64 15.3127L323.538 -10.3293L351.694 -12.8463L367.951 10.2788L356.053 35.9208L327.898 38.4377L311.64 15.3127Z" stroke="black" stroke-opacity="0.3" stroke-width="3"/>
<path d="M-19.36 710.313L-7.46188 684.671L20.6938 682.154L36.9514 705.279L25.0533 730.921L-3.10237 733.438L-19.36 710.313Z" stroke="black" stroke-opacity="0.23" stroke-width="3"/>
<path d="M20.64 682.313L32.5381 656.671L60.6938 654.154L76.9514 677.279L65.0533 702.921L36.8976 705.438L20.64 682.313Z" stroke="black" stroke-opacity="0.23" stroke-width="3"/>
<path d="M60.64 654.313L72.5381 628.671L100.694 626.154L116.951 649.279L105.053 674.921L76.8976 677.438L60.64 654.313Z" stroke="black" stroke-opacity="0.23" stroke-width="3"/>
<path d="M-23.36 661.313L-11.4619 635.671L16.6938 633.154L32.9514 656.279L21.0533 681.921L-7.10237 684.438L-23.36 661.313Z" stroke="black" stroke-opacity="0.23" stroke-width="3"/>
<path d="M15.64 633.313L27.5381 607.671L55.6938 605.154L71.9514 628.279L60.0533 653.921L31.8976 656.438L15.64 633.313Z" stroke="black" stroke-opacity="0.23" stroke-width="3"/>
<path d="M54.64 605.313L66.5381 579.671L94.6938 577.154L110.951 600.279L99.0533 625.921L70.8976 628.438L54.64 605.313Z" stroke="black" stroke-opacity="0.23" stroke-width="3"/>
<path d="M11.64 582.313L23.5381 556.671L51.6938 554.154L67.9514 577.279L56.0533 602.921L27.8976 605.438L11.64 582.313Z" stroke="black" stroke-opacity="0.23" stroke-width="3"/>
<g filter="url(#filter0_f_9_121)">
<circle cx="-15" cy="657" r="93" fill="#6C47DB" fill-opacity="0.7"/>
</g>
<g filter="url(#filter1_f_9_121)">
<circle cx="379" cy="110" r="93" fill="#6C47DB" fill-opacity="0.7"/>
</g>
<defs>
<filter id="filter0_f_9_121" x="-408" y="264" width="786" height="786" filterUnits="userSpaceOnUse" color-interpolation-filters="sRGB">
<feFlood flood-opacity="0" result="BackgroundImageFix"/>
<feBlend mode="normal" in="SourceGraphic" in2="BackgroundImageFix" result="shape"/>
<feGaussianBlur stdDeviation="150" result="effect1_foregroundBlur_9_121"/>
</filter>
<filter id="filter1_f_9_121" x="-14" y="-283" width="786" height="786" filterUnits="userSpaceOnUse" color-interpolation-filters="sRGB">
<feFlood flood-opacity="0" result="BackgroundImageFix"/>
<feBlend mode="normal" in="SourceGraphic" in2="BackgroundImageFix" result="shape"/>
<feGaussianBlur stdDeviation="150" result="effect1_foregroundBlur_9_121"/>
</filter>
</defs>
</svg>
